<svg width="27" height="27" viewBox="0 0 27 27" fill="none" xmlns="http://www.w3.org/2000/svg">
<path d="M3.87334 6.29385L6.68145 3.48838C7.02422 3.14561 7.48301 2.95312 7.96816 2.95312C8.45332 2.95312 8.91211 3.14297 9.25488 3.48838L12.2792 6.50742C12.622 6.8502 12.8145 7.31162 12.8145 7.79678C12.8145 8.28457 12.6246 8.74072 12.2792 9.08613L9.9167 11.4513C10.4549 12.7053 11.2282 13.8446 12.1948 14.8078C13.1625 15.7808 14.2937 16.548 15.5487 17.0912L17.9112 14.7261C18.254 14.3833 18.7128 14.1908 19.1979 14.1908C19.4373 14.1899 19.6743 14.2368 19.8953 14.3287C20.1162 14.4206 20.3166 14.5557 20.4847 14.7261L23.5116 17.7451C23.8544 18.0879 24.0469 18.5493 24.0469 19.0345C24.0469 19.5223 23.857 19.9784 23.5116 20.3238L20.7062 23.1293C20.1208 23.7147 19.314 24.0495 18.486 24.0495C18.3146 24.0495 18.1485 24.0363 17.9798 24.0073C14.4888 23.4325 11.0241 21.5736 8.22656 18.7787C5.43164 15.9785 3.57539 12.5139 2.99531 9.02022C2.8292 8.02881 3.16143 7.0084 3.87334 6.29385ZM4.86475 8.70645C5.37891 11.8151 7.05059 14.9159 9.56865 17.434C12.0867 19.9521 15.1849 21.6237 18.2936 22.1379C18.6838 22.2038 19.0846 22.072 19.3693 21.7898L22.1247 19.0345L19.2032 16.1104L16.0444 19.2744L16.0207 19.2981L15.4512 19.0872C13.7243 18.4523 12.1562 17.4495 10.8554 16.1483C9.55463 14.8471 8.55237 13.2785 7.91807 11.5515L7.70713 10.9819L10.8923 7.79941L7.9708 4.87529L5.21543 7.63066C4.93066 7.91543 4.79883 8.31621 4.86475 8.70645Z" fill="black"/>
</svg>
