<svg width="27" height="27" viewBox="0 0 27 27" fill="none" xmlns="http://www.w3.org/2000/svg">
<path d="M24.4688 4.21875H2.53125C2.06455 4.21875 1.6875 4.5958 1.6875 5.0625V21.9375C1.6875 22.4042 2.06455 22.7812 2.53125 22.7812H24.4688C24.9354 22.7812 25.3125 22.4042 25.3125 21.9375V5.0625C25.3125 4.5958 24.9354 4.21875 24.4688 4.21875ZM23.4141 7.14023V20.8828H3.58594V7.14023L2.8582 6.57334L3.89443 5.2418L5.02295 6.11982H21.9797L23.1082 5.2418L24.1444 6.57334L23.4141 7.14023ZM21.9797 6.11719L13.5 12.709L5.02031 6.11719L3.8918 5.23916L2.85557 6.5707L3.5833 7.1376L12.5903 14.1407C12.8494 14.342 13.168 14.4512 13.496 14.4512C13.8241 14.4512 14.1427 14.342 14.4018 14.1407L23.4141 7.14023L24.1418 6.57334L23.1056 5.2418L21.9797 6.11719Z" fill="black"/>
</svg>
