<svg width="75" height="75" viewBox="0 0 75 75" fill="none" xmlns="http://www.w3.org/2000/svg">
<path d="M17.5008 9.75439C7.8353 9.75439 0 17.5919 0 27.2607C0 36.9262 7.8353 44.7637 17.5008 44.7637C17.5008 44.7637 17.4161 51.2665 12.1333 60.6256C11.5465 62.5009 12.5925 64.498 14.469 65.0814C15.8004 65.5002 17.2014 65.0931 18.1061 64.1455C30.2533 50.8594 35.0082 35.2225 35.0082 27.2607C35.0082 17.5919 27.173 9.75439 17.5008 9.75439Z" fill="#DC000B"/>
<path d="M57.4925 9.75439C47.827 9.75439 39.9917 17.592 39.9917 27.2607C39.9917 36.9262 47.827 44.7637 57.4925 44.7637C57.4925 44.7637 57.4078 51.2665 52.125 60.6256C51.5382 62.5009 52.5844 64.498 54.4607 65.0814C55.7921 65.5002 57.1931 65.0931 58.0976 64.1455C70.245 50.8594 75 35.2225 75 27.2607C75 17.5919 67.1647 9.75439 57.4925 9.75439Z" fill="#DC000B"/>
</svg>
